<?xml version="1.0" encoding="UTF-8" standalone="no"?>
<!-- Created with Inkscape (http://www.inkscape.org/) -->

<svg
   xmlns:dc="http://purl.org/dc/elements/1.1/"
   xmlns:cc="http://creativecommons.org/ns#"
   xmlns:rdf="http://www.w3.org/1999/02/22-rdf-syntax-ns#"
   xmlns:svg="http://www.w3.org/2000/svg"
   xmlns="http://www.w3.org/2000/svg"
   xmlns:sodipodi="http://sodipodi.sourceforge.net/DTD/sodipodi-0.dtd"
   xmlns:inkscape="http://www.inkscape.org/namespaces/inkscape"
   width="128"
   height="65"
   id="svg3127"
   version="1.1"
   inkscape:version="0.48.4 r9939"
   sodipodi:docname="predator.svg"
   inkscape:export-filename="/home/seemayer/Projects/Python/LudumDare-26/ld26/data/images/predator_7.png"
   inkscape:export-xdpi="90"
   inkscape:export-ydpi="90">
  <defs
     id="defs3129">
    <linearGradient
       id="linearGradient4044">
      <stop
         style="stop-color:#6d6d6d;stop-opacity:1;"
         offset="0"
         id="stop4046" />
      <stop
         id="stop4052"
         offset="0.19736843"
         style="stop-color:#8f8f8f;stop-opacity:1;" />
      <stop
         style="stop-color:#b1b1b1;stop-opacity:1;"
         offset="1"
         id="stop4048" />
    </linearGradient>
    <linearGradient
       id="linearGradient4044-7">
      <stop
         style="stop-color:#6d6d6d;stop-opacity:1;"
         offset="0"
         id="stop4046-4" />
      <stop
         id="stop4052-5"
         offset="0.19736843"
         style="stop-color:#8f8f8f;stop-opacity:1;" />
      <stop
         style="stop-color:#b1b1b1;stop-opacity:1;"
         offset="1"
         id="stop4048-5" />
    </linearGradient>
  </defs>
  <sodipodi:namedview
     id="base"
     pagecolor="#ffffff"
     bordercolor="#666666"
     borderopacity="1.0"
     inkscape:pageopacity="0.0"
     inkscape:pageshadow="2"
     inkscape:zoom="4"
     inkscape:cx="41.871131"
     inkscape:cy="20.829045"
     inkscape:document-units="px"
     inkscape:current-layer="g5675"
     showgrid="false"
     inkscape:object-nodes="false"
     inkscape:window-width="1364"
     inkscape:window-height="748"
     inkscape:window-x="0"
     inkscape:window-y="18"
     inkscape:window-maximized="0"
     fit-margin-top="0"
     fit-margin-left="0"
     fit-margin-right="0"
     fit-margin-bottom="0"
     showguides="true"
     inkscape:guide-bbox="true">
    <inkscape:grid
       type="xygrid"
       id="grid5621"
       empspacing="5"
       visible="true"
       enabled="true"
       snapvisiblegridlinesonly="true" />
    <sodipodi:guide
       orientation="0,1"
       position="-15,32"
       id="guide5623" />
  </sodipodi:namedview>
  <metadata
     id="metadata3132">
    <rdf:RDF>
      <cc:Work
         rdf:about="">
        <dc:format>image/svg+xml</dc:format>
        <dc:type
           rdf:resource="http://purl.org/dc/dcmitype/StillImage" />
        <dc:title></dc:title>
      </cc:Work>
    </rdf:RDF>
  </metadata>
  <g
     style="display:none"
     transform="translate(-1.813164,-975.4395)"
     id="g5715"
     inkscape:groupmode="layer"
     inkscape:label="Down 2"
     sodipodi:insensitive="true">
    <path
       sodipodi:nodetypes="ccccccccc"
       inkscape:connector-curvature="0"
       id="path5717"
       d="m 2.7549359,1023.662 c 0,0 3.483909,-1.4653 11.0704171,-4.9578 7.586707,-3.492 11.648902,-2.2345 16.198398,-4.2388 4.549556,-2.0043 10.385828,-3.5774 10.385828,-3.5774 0,0 -6.149299,3.2919 -9.974377,4.9679 -3.824865,1.6764 -6.114469,6.2608 -13.540975,9.6244 -2.147971,-1.6896 -6.866333,2.6079 -8.1954486,0.2201 -0.5926109,-1.3085 -5.9439812,-2.0387 -5.9439812,-2.0387 z"
       style="fill:#181212;fill-opacity:1;stroke:none" />
    <path
       sodipodi:nodetypes="zsssz"
       inkscape:connector-curvature="0"
       id="path5719"
       d="m 124.6769,1007.2209 c -0.25332,-6.856 -8.9112,-13.98985 -30.892241,-14.26105 -29.029675,-0.3581 -64.356199,20.82285 -64.555048,22.06925 -0.198851,1.2465 44.634187,8.2552 65.513283,8.2552 20.879096,0 30.187326,-9.2074 29.934006,-16.0634 z"
       style="fill:#edd8d8;fill-opacity:1;stroke:none" />
    <path
       inkscape:connector-curvature="0"
       id="path5721"
       d="m 92.84375,1021.2541 c -20.270646,-1.659 -39.915633,-1.6336 -59.09375,-8.2499 23.427389,-8.3056 48.783171,-20.82465 73.6875,-16.68765 6.4099,1.2797 16.55334,4.81345 14.9375,13.03135 -4.73758,10.6947 -19.40579,11.9782 -29.53125,11.9062 z"
       style="fill:#8d5959;fill-opacity:1;stroke:none"
       sodipodi:nodetypes="ccccc" />
    <path
       style="fill:#5a3934;fill-opacity:1;stroke:none"
       d="m 119.52436,1007.2209 c -0.25332,-6.856 -3.75866,-13.98985 -25.739701,-14.26105 -29.029675,-0.3581 -64.709752,21.01465 -64.908601,22.26105 -0.198851,1.2464 44.98774,8.0634 65.866836,8.0634 20.879096,0 25.034786,-9.2074 24.781466,-16.0634 z"
       id="path5723"
       inkscape:connector-curvature="0"
       sodipodi:nodetypes="zsssz" />
    <path
       inkscape:connector-curvature="0"
       id="path5725"
       d="m 66.206935,1032.7455 17.940034,-11.1254 c 5.618876,-0.088 9.801921,0.7815 16.460081,0.1918 0,0 1.63514,3.0681 -4.926867,3.931 -6.562001,0.8629 -29.473248,7.0026 -29.473248,7.0026 z"
       style="fill:#654b4b;fill-opacity:1;stroke:none"
       sodipodi:nodetypes="cccsc" />
    <path
       inkscape:connector-curvature="0"
       id="path5727"
       d="m 55.146134,1011.3422 c 0,0 24.392153,-2.2997 31.153005,-2.2033 6.760849,0.096 11.732062,-0.9588 11.533213,-1.6299 -0.19885,-0.6712 -3.579273,-2.0136 -10.73782,-2.1095 -7.158548,-0.096 -31.948398,5.943 -31.948398,5.943 z"
       style="fill:#181212;fill-opacity:1;stroke:none"
       sodipodi:nodetypes="cccccc" />
    <path
       sodipodi:nodetypes="cccsc"
       style="fill:#654b4b;fill-opacity:1;stroke:none"
       d="m 43.741239,1026.0227 8.337744,-6.7127 c 5.610572,0.3129 10.972894,1.3531 17.646762,1.3476 0,0 0.235447,2.4026 -6.356843,2.6261 -6.592296,0.2235 -19.627663,2.739 -19.627663,2.739 z"
       id="path5729"
       inkscape:connector-curvature="0" />
    <path
       sodipodi:nodetypes="cccsc"
       style="fill:#654b4b;fill-opacity:1;stroke:none"
       d="m 65.378507,982.91485 17.940034,11.1254 c 5.618876,0.088 9.801921,-0.7815 16.460082,-0.1918 0,0 1.635137,-3.0682 -4.926868,-3.9311 -6.562001,-0.8629 -29.473248,-7.0025 -29.473248,-7.0025 z"
       id="path5731"
       inkscape:connector-curvature="0" />
    <path
       inkscape:connector-curvature="0"
       id="path5733"
       d="m 43.137047,997.99265 9.71816,4.48735 c 5.366689,-1.6659 10.315941,-3.97715 16.791407,-5.59235 0,0 -0.354965,-2.3878 -6.804241,-1.0038 -6.44928,1.3838 -19.705326,2.1088 -19.705326,2.1088 z"
       style="fill:#654b4b;fill-opacity:1;stroke:none"
       sodipodi:nodetypes="cccsc" />
  </g>
  <g
     inkscape:label="Down  1"
     inkscape:groupmode="layer"
     id="g5695"
     transform="translate(-1.813164,-975.4395)"
     style="display:none"
     sodipodi:insensitive="true">
    <path
       style="fill:#181212;fill-opacity:1;stroke:none"
       d="m 2.7556379,1015.2864 c 0,0 3.6489056,-0.9851 11.6349271,-3.4296 7.986258,-2.4439 11.843279,-0.6534 16.620394,-2.0299 4.77707,-1.3767 10.771515,-2.1535 10.771515,-2.1535 0,0 -6.534959,2.4382 -10.550103,3.5865 -4.015053,1.1487 -6.898279,5.385 -14.708569,7.7231 -1.902215,-1.9622 -7.153859,1.6643 -8.1509984,-0.8801 -0.4119293,-1.3761 -5.6172043,-2.8167 -5.6172043,-2.8167 z"
       id="path5697"
       inkscape:connector-curvature="0"
       sodipodi:nodetypes="ccccccccc" />
    <path
       style="fill:#edd8d8;fill-opacity:1;stroke:none"
       d="m 124.6769,1007.2209 c -0.25332,-6.856 -8.9112,-13.98985 -30.892241,-14.26105 -29.029675,-0.3581 -64.356199,16.82285 -64.555048,18.06925 -0.198851,1.2465 44.634187,12.2552 65.513283,12.2552 20.879096,0 30.187326,-9.2074 29.934006,-16.0634 z"
       id="path5699"
       inkscape:connector-curvature="0"
       sodipodi:nodetypes="zsssz" />
    <path
       sodipodi:nodetypes="ccccc"
       style="fill:#8d5959;fill-opacity:1;stroke:none"
       d="m 92.84375,1021.2541 c -20.270646,-1.659 -39.915633,-3.6336 -59.09375,-10.2499 23.427389,-8.3056 48.783171,-18.82465 73.6875,-14.68765 6.4099,1.2797 16.55334,4.81345 14.9375,13.03135 -4.73758,10.6947 -19.40579,11.9782 -29.53125,11.9062 z"
       id="path5701"
       inkscape:connector-curvature="0" />
    <path
       sodipodi:nodetypes="zsssz"
       inkscape:connector-curvature="0"
       id="path5703"
       d="m 119.52436,1007.2209 c -0.25332,-6.856 -3.75866,-13.98985 -25.739701,-14.26105 -29.029675,-0.3581 -64.179422,16.83785 -64.378271,18.08425 -0.198851,1.2465 44.45741,12.2402 65.336506,12.2402 20.879096,0 25.034786,-9.2074 24.781466,-16.0634 z"
       style="fill:#5a3934;fill-opacity:1;stroke:none" />
    <path
       sodipodi:nodetypes="cccsc"
       style="fill:#654b4b;fill-opacity:1;stroke:none"
       d="m 66.206935,1032.7455 17.940034,-11.1254 c 5.618876,-0.088 9.801921,0.7815 16.460081,0.1918 0,0 1.63514,3.0681 -4.926867,3.931 -6.562001,0.8629 -29.473248,7.0026 -29.473248,7.0026 z"
       id="path5705"
       inkscape:connector-curvature="0" />
    <path
       sodipodi:nodetypes="ccccc"
       style="fill:#181212;fill-opacity:1;stroke:none"
       d="m 55.499687,1009.2209 c 0,0 24.0386,-0.1783 30.799452,-0.082 6.760849,0.096 11.732062,-0.9588 11.533213,-1.6299 -0.19885,-0.6712 -3.579273,-2.0135 -10.73782,-2.1094 -7.158548,-0.096 -31.594845,3.8217 -31.594845,3.8217 z"
       id="path5707"
       inkscape:connector-curvature="0" />
    <path
       inkscape:connector-curvature="0"
       id="path5709"
       d="m 45.068989,1023.2816 8.815436,-6.0718 c 5.571579,0.7307 10.841319,2.1682 17.496985,2.6608 0,0 0.0555,2.4134 -6.535089,2.1444 -6.590594,-0.2691 -19.777332,1.2666 -19.777332,1.2666 z"
       style="fill:#654b4b;fill-opacity:1;stroke:none"
       sodipodi:nodetypes="cccsc" />
    <path
       inkscape:connector-curvature="0"
       id="path5711"
       d="m 65.378507,982.91485 17.940034,11.1254 c 5.618876,0.088 9.801921,-0.7815 16.460082,-0.1918 0,0 1.635137,-3.0682 -4.926868,-3.9311 -6.562001,-0.8629 -29.473248,-7.0025 -29.473248,-7.0025 z"
       style="fill:#654b4b;fill-opacity:1;stroke:none"
       sodipodi:nodetypes="cccsc" />
    <path
       sodipodi:nodetypes="cccsc"
       style="fill:#654b4b;fill-opacity:1;stroke:none"
       d="m 45.634268,996.32305 9.630017,4.67345 c 5.39775,-1.56235 10.390557,-3.77785 16.895904,-5.26815 0,0 -0.308953,-2.3942 -6.783665,-1.1346 -6.474714,1.2595 -19.742256,1.7293 -19.742256,1.7293 z"
       id="path5713"
       inkscape:connector-curvature="0" />
  </g>
  <g
     inkscape:label="Neutral"
     inkscape:groupmode="layer"
     id="layer1"
     transform="translate(-1.813164,-975.4395)"
     style="display:none"
     sodipodi:insensitive="true">
    <path
       style="fill:#181212;fill-opacity:1;stroke:none"
       d="m 3.1804539,1005.0781 c 0,0 3.7781203,0.1026 12.1297601,0.051 8.351638,-0.051 11.533214,2.7703 16.504429,2.8216 4.971213,0.051 10.936668,1.026 10.936668,1.026 0,0 -6.959699,0.4617 -11.135517,0.4104 -4.17582,-0.051 -8.152791,3.1806 -16.30558,3.1806 -1.259557,-2.4252 -7.3306203,-0.4571 -7.5562447,-3.1806 0,-1.4364 -4.5735154,-4.3093 -4.5735154,-4.3093 z"
       id="path3262"
       inkscape:connector-curvature="0"
       sodipodi:nodetypes="ccccccccc" />
    <path
       style="fill:#edd8d8;fill-opacity:1;stroke:none"
       d="m 124.6769,1008.4395 c -0.25332,6.856 -8.9112,13.9898 -30.892241,14.261 -29.029675,0.3581 -64.356199,-12.8228 -64.555048,-14.0692 -0.198851,-1.2465 44.634187,-16.25527 65.513283,-16.25527 20.879096,0 30.187326,9.20747 29.934006,16.06347 z"
       id="path3260"
       inkscape:connector-curvature="0"
       sodipodi:nodetypes="zsssz" />
    <path
       style="fill:#8d5959;fill-opacity:1;stroke:none"
       d="m 92.84375,994.40625 c -20.270646,1.65901 -39.915633,7.63365 -59.09375,14.24995 23.427389,8.3056 48.783171,14.8246 73.6875,10.6876 6.4099,-1.2797 16.55334,-4.8134 14.9375,-13.0313 -4.73758,-10.69477 -19.40579,-11.97828 -29.53125,-11.90625 z"
       id="path5643"
       inkscape:connector-curvature="0" />
    <path
       sodipodi:nodetypes="zsssz"
       inkscape:connector-curvature="0"
       id="path5625"
       d="m 119.52436,1008.4395 c -0.25332,6.856 -3.75866,13.9898 -25.739701,14.261 -29.029675,0.3581 -64.356199,-12.8228 -64.555048,-14.0692 -0.198851,-1.2465 44.634187,-16.25527 65.513283,-16.25527 20.879096,0 25.034786,9.20747 24.781466,16.06347 z"
       style="fill:#5a3934;fill-opacity:1;stroke:none" />
    <path
       sodipodi:nodetypes="cccsc"
       style="fill:#654b4b;fill-opacity:1;stroke:none"
       d="m 65.499828,983.2684 17.940034,11.1254 c 5.618876,0.088 9.801921,-0.7815 16.460081,-0.1918 0,0 1.635137,-3.06812 -4.926867,-3.93102 -6.562001,-0.8629 -29.473248,-7.00258 -29.473248,-7.00258 z"
       id="path4054"
       inkscape:connector-curvature="0" />
    <path
       style="fill:#181212;fill-opacity:1;stroke:none"
       d="m 55.676464,1008.823 c 0,0 23.861823,-2.2052 30.622675,-2.3011 6.760849,-0.096 11.732062,0.9588 11.533213,1.6299 -0.19885,0.6712 -3.579273,2.0135 -10.73782,2.1094 -7.158548,0.096 -31.418068,-1.4382 -31.418068,-1.4382 z"
       id="path4056"
       inkscape:connector-curvature="0" />
    <path
       inkscape:connector-curvature="0"
       id="path5649"
       d="m 47.115052,994.40534 9.309584,5.28299 c 5.487037,-1.21195 10.611971,-3.10184 17.199681,-4.17078 0,0 -0.154367,-2.4091 -6.696669,-1.56851 -6.542303,0.84059 -19.812596,0.4563 -19.812596,0.4563 z"
       style="fill:#654b4b;fill-opacity:1;stroke:none"
       sodipodi:nodetypes="cccsc" />
    <path
       inkscape:connector-curvature="0"
       id="path5651"
       d="m 65.378507,1032.7455 17.940034,-11.1254 c 5.618876,-0.088 9.801921,0.7815 16.460082,0.1918 0,0 1.635137,3.0682 -4.926868,3.9311 -6.562001,0.8629 -29.473248,7.0025 -29.473248,7.0025 z"
       style="fill:#654b4b;fill-opacity:1;stroke:none"
       sodipodi:nodetypes="cccsc" />
    <path
       sodipodi:nodetypes="cccsc"
       style="fill:#654b4b;fill-opacity:1;stroke:none"
       d="m 46.993731,1021.6086 9.309584,-5.283 c 5.487037,1.212 10.611971,3.1019 17.199681,4.1708 0,0 -0.154367,2.4091 -6.696669,1.5685 -6.542303,-0.8406 -19.812596,-0.4563 -19.812596,-0.4563 z"
       id="path5653"
       inkscape:connector-curvature="0" />
  </g>
  <g
     style="display:inline"
     transform="translate(-1.813164,-975.4395)"
     id="g5655"
     inkscape:groupmode="layer"
     inkscape:label="Up  1"
     sodipodi:insensitive="true">
    <path
       sodipodi:nodetypes="ccccccccc"
       inkscape:connector-curvature="0"
       id="path5657"
       d="m 4.1274845,993.1749 c 0,0 3.6055647,1.13341 11.6520135,3.37109 8.046283,2.23826 10.333523,5.82311 15.100617,7.23391 4.767169,1.4106 10.237511,3.982 10.237511,3.982 0,0 -6.820045,-1.462 -10.82215,-2.655 -4.00219,-1.1927 -8.712156,0.8261 -16.553232,-1.4066 -0.547188,-2.6776 -6.925141,-2.4474 -6.3962405,-5.12859 0.3933953,-1.38149 -3.2184371,-5.3971 -3.2184371,-5.3971 z"
       style="fill:#181212;fill-opacity:1;stroke:none" />
    <path
       sodipodi:nodetypes="zsssz"
       inkscape:connector-curvature="0"
       id="path5659"
       d="m 124.6769,1008.4395 c -0.25332,6.856 -8.9112,13.9898 -30.892241,14.261 -29.029675,0.3581 -64.356199,-16.8228 -64.555048,-18.0692 -0.198851,-1.2465 44.634187,-12.25527 65.513283,-12.25527 20.879096,0 30.187326,9.20747 29.934006,16.06347 z"
       style="fill:#edd8d8;fill-opacity:1;stroke:none" />
    <path
       inkscape:connector-curvature="0"
       id="path5661"
       d="m 92.84375,994.40625 c -20.270646,1.65901 -39.915633,3.63365 -59.09375,10.24995 23.427389,8.3056 48.783171,18.8246 73.6875,14.6876 6.4099,-1.2797 16.55334,-4.8134 14.9375,-13.0313 -4.73758,-10.69477 -19.40579,-11.97828 -29.53125,-11.90625 z"
       style="fill:#8d5959;fill-opacity:1;stroke:none"
       sodipodi:nodetypes="ccccc" />
    <path
       style="fill:#5a3934;fill-opacity:1;stroke:none"
       d="m 119.52436,1008.4395 c -0.25332,6.856 -3.75866,13.9898 -25.739701,14.261 -29.029675,0.3581 -64.179422,-16.8378 -64.378271,-18.0842 -0.198851,-1.2465 44.45741,-12.24027 65.336506,-12.24027 20.879096,0 25.034786,9.20747 24.781466,16.06347 z"
       id="path5663"
       inkscape:connector-curvature="0"
       sodipodi:nodetypes="zsssz" />
    <path
       inkscape:connector-curvature="0"
       id="path5665"
       d="m 66.206935,982.91485 17.940034,11.1254 c 5.618876,0.088 9.801921,-0.7815 16.460081,-0.1918 0,0 1.63514,-3.06812 -4.926867,-3.93102 -6.562001,-0.8629 -29.473248,-7.00258 -29.473248,-7.00258 z"
       style="fill:#654b4b;fill-opacity:1;stroke:none"
       sodipodi:nodetypes="cccsc" />
    <path
       inkscape:connector-curvature="0"
       id="path5667"
       d="m 55.499687,1006.4395 c 0,0 24.0386,0.1783 30.799452,0.082 6.760849,-0.096 11.732062,0.9588 11.533213,1.6299 -0.19885,0.6712 -3.579273,2.0135 -10.73782,2.1094 -7.158548,0.096 -31.594845,-3.8217 -31.594845,-3.8217 z"
       style="fill:#181212;fill-opacity:1;stroke:none"
       sodipodi:nodetypes="ccccc" />
    <path
       sodipodi:nodetypes="cccsc"
       style="fill:#654b4b;fill-opacity:1;stroke:none"
       d="m 45.068989,992.37877 8.815436,6.07177 c 5.571579,-0.73069 10.841319,-2.16821 17.496985,-2.66081 0,0 0.0555,-2.4134 -6.535089,-2.14434 -6.590594,0.26906 -19.777332,-1.26662 -19.777332,-1.26662 z"
       id="path5669"
       inkscape:connector-curvature="0" />
    <path
       sodipodi:nodetypes="cccsc"
       style="fill:#654b4b;fill-opacity:1;stroke:none"
       d="m 65.378507,1032.7455 17.940034,-11.1254 c 5.618876,-0.088 9.801921,0.7815 16.460082,0.1918 0,0 1.635137,3.0682 -4.926868,3.9311 -6.562001,0.8629 -29.473248,7.0025 -29.473248,7.0025 z"
       id="path5671"
       inkscape:connector-curvature="0" />
    <path
       inkscape:connector-curvature="0"
       id="path5673"
       d="m 45.634268,1019.3373 9.630017,-4.6734 c 5.39775,1.5623 10.390557,3.7778 16.895904,5.2681 0,0 -0.308953,2.3942 -6.783665,1.1346 -6.474714,-1.2595 -19.742256,-1.7293 -19.742256,-1.7293 z"
       style="fill:#654b4b;fill-opacity:1;stroke:none"
       sodipodi:nodetypes="cccsc" />
  </g>
  <g
     inkscape:label="Up 2"
     inkscape:groupmode="layer"
     id="g5675"
     transform="translate(-1.813164,-975.4395)"
     style="display:none"
     sodipodi:insensitive="true">
    <path
       style="fill:#181212;fill-opacity:1;stroke:none"
       d="m 5.2040124,987.03591 c 0,0 3.4614294,1.51764 11.2178436,4.61451 7.756186,3.09743 9.641281,6.90912 14.227319,8.82838 4.586135,1.9192 9.745445,5.0685 9.745445,5.0685 0,0 -6.621336,-2.1928 -10.470508,-3.8127 -3.849289,-1.6195 -8.750365,-0.1233 -16.303157,-3.19292 -0.253662,-2.72114 -6.6189781,-3.18378 -5.8025063,-5.79182 0.5408547,-1.3307 -2.6143234,-5.71422 -2.6143234,-5.71422 z"
       id="path5677"
       inkscape:connector-curvature="0"
       sodipodi:nodetypes="ccccccccc" />
    <path
       style="fill:#edd8d8;fill-opacity:1;stroke:none"
       d="m 124.6769,1008.4395 c -0.25332,6.856 -8.9112,13.9898 -30.892241,14.261 -29.029675,0.3581 -64.356199,-20.8228 -64.555048,-22.0692 -0.198851,-1.2465 44.634187,-8.25527 65.513283,-8.25527 20.879096,0 30.187326,9.20747 29.934006,16.06347 z"
       id="path5679"
       inkscape:connector-curvature="0"
       sodipodi:nodetypes="zsssz" />
    <path
       sodipodi:nodetypes="ccccc"
       style="fill:#8d5959;fill-opacity:1;stroke:none"
       d="m 92.84375,994.40625 c -20.270646,1.65901 -39.915633,1.63365 -59.09375,8.24995 23.427389,8.3056 48.783171,20.8246 73.6875,16.6876 6.4099,-1.2797 16.55334,-4.8134 14.9375,-13.0313 -4.73758,-10.69477 -19.40579,-11.97828 -29.53125,-11.90625 z"
       id="path5681"
       inkscape:connector-curvature="0" />
    <path
       sodipodi:nodetypes="zsssz"
       inkscape:connector-curvature="0"
       id="path5683"
       d="m 119.52436,1008.4395 c -0.25332,6.856 -3.75866,13.9898 -25.739701,14.261 -29.029675,0.3581 -64.709752,-21.0146 -64.908601,-22.261 -0.198851,-1.24648 44.98774,-8.06347 65.866836,-8.06347 20.879096,0 25.034786,9.20747 24.781466,16.06347 z"
       style="fill:#5a3934;fill-opacity:1;stroke:none" />
    <path
       sodipodi:nodetypes="cccsc"
       style="fill:#654b4b;fill-opacity:1;stroke:none"
       d="m 66.206935,982.91485 17.940034,11.1254 c 5.618876,0.088 9.801921,-0.7815 16.460081,-0.1918 0,0 1.63514,-3.06812 -4.926867,-3.93102 -6.562001,-0.8629 -29.473248,-7.00258 -29.473248,-7.00258 z"
       id="path5685"
       inkscape:connector-curvature="0" />
    <path
       sodipodi:nodetypes="cccccc"
       style="fill:#181212;fill-opacity:1;stroke:none"
       d="m 55.146134,1004.3182 c 0,0 24.392153,2.2996 31.153005,2.2033 6.760849,-0.096 11.732062,0.9588 11.533213,1.6299 -0.19885,0.6712 -3.579273,2.0135 -10.73782,2.1094 -7.158548,0.096 -31.948398,-5.943 -31.948398,-5.943 z"
       id="path5687"
       inkscape:connector-curvature="0" />
    <path
       inkscape:connector-curvature="0"
       id="path5689"
       d="m 43.741239,989.63767 8.337744,6.7127 c 5.610572,-0.31287 10.972894,-1.35312 17.646762,-1.34766 0,0 0.235447,-2.40253 -6.356843,-2.62605 -6.592296,-0.22352 -19.627663,-2.73899 -19.627663,-2.73899 z"
       style="fill:#654b4b;fill-opacity:1;stroke:none"
       sodipodi:nodetypes="cccsc" />
    <path
       inkscape:connector-curvature="0"
       id="path5691"
       d="m 65.378507,1032.7455 17.940034,-11.1254 c 5.618876,-0.088 9.801921,0.7815 16.460082,0.1918 0,0 1.635137,3.0682 -4.926868,3.9311 -6.562001,0.8629 -29.473248,7.0025 -29.473248,7.0025 z"
       style="fill:#654b4b;fill-opacity:1;stroke:none"
       sodipodi:nodetypes="cccsc" />
    <path
       sodipodi:nodetypes="cccsc"
       style="fill:#654b4b;fill-opacity:1;stroke:none"
       d="m 43.137047,1017.6677 9.71816,-4.4873 c 5.366689,1.6659 10.315941,3.9771 16.791407,5.5923 0,0 -0.354965,2.3878 -6.804241,1.0038 -6.44928,-1.3838 -19.705326,-2.1088 -19.705326,-2.1088 z"
       id="path5693"
       inkscape:connector-curvature="0" />
  </g>
</svg>
