<?xml version="1.0" encoding="UTF-8" standalone="no"?>
<!-- Created with Inkscape (http://www.inkscape.org/) -->

<svg
   xmlns:dc="http://purl.org/dc/elements/1.1/"
   xmlns:cc="http://creativecommons.org/ns#"
   xmlns:rdf="http://www.w3.org/1999/02/22-rdf-syntax-ns#"
   xmlns:svg="http://www.w3.org/2000/svg"
   xmlns="http://www.w3.org/2000/svg"
   xmlns:xlink="http://www.w3.org/1999/xlink"
   xmlns:sodipodi="http://sodipodi.sourceforge.net/DTD/sodipodi-0.dtd"
   xmlns:inkscape="http://www.inkscape.org/namespaces/inkscape"
   width="500"
   height="3000"
   id="svg2"
   version="1.1"
   inkscape:version="0.48.4 r9939"
   sodipodi:docname="trawl.svg"
   inkscape:export-filename="/home/seemayer/Projects/Python/LudumDare-26/ld26/data/images/trawl.png"
   inkscape:export-xdpi="90"
   inkscape:export-ydpi="90">
  <defs
     id="defs4">
    <pattern
       patternUnits="userSpaceOnUse"
       width="32.0768"
       height="32.07153"
       patternTransform="translate(144.375,817.25)"
       id="pattern5235">
      <path
         id="path5233"
         style="fill:none;stroke:#ffffff;stroke-width:0.1pt;stroke-linecap:butt;stroke-linejoin:miter;stroke-opacity:1"
         d="m 0.0768,0.07153 0,32 m 1.4,-32 0,32 m 1.4,-32 0,32 m 1.4,-32 0,32 m 1.4,-32 0,32 m 1.4,-32 0,32 m 1.4,-32 0,32 m 1.4,-32 0,32 m 1.4,-32 0,32 m 1.4,-32 0,32 m 1.4,-32 0,32 m 1.4,-32 0,32 m 1.4,-32 0,32 m 1.4,-32 0,32 m 1.4,-32 0,32 m 1.4,-32 0,32 m 1.4,-32 0,32 m 1.4,-32 0,32 m 1.4,-32 0,32 m 1.4,-32 0,32 m 1.4,-32 0,32 m 1.4,-32 0,32 m 1.4,-32 0,32 m -30.8,-32 32,0 m -32,1.4 32,0 m -32,1.4 32,0 m -32,1.4 32,0 m -32,1.4 32,0 m -32,1.4 32,0 m -32,1.4 32,0 m -32,1.4 32,0 m -32,1.4 32,0 m -32,1.4 32,0 m -32,1.4 32,0 m -32,1.4 32,0 m -32,1.4 32,0 m -32,1.4 32,0 m -32,1.4 32,0 m -32,1.4 32,0 m -32,1.4 32,0 m -32,1.4 32,0 m -32,1.4 32,0 m -32,1.4 32,0 m -32,1.4 32,0 m -32,1.4 32,0 m -32,1.4 32,0"
         inkscape:connector-curvature="0" />
    </pattern>
    <linearGradient
       inkscape:collect="always"
       xlink:href="#linearGradient4044-7"
       id="linearGradient4050-3"
       x1="17.832979"
       y1="39.215309"
       x2="59.924301"
       y2="32.791424"
       gradientUnits="userSpaceOnUse"
       gradientTransform="translate(-1.056892e-6,4.1171874e-6)" />
    <linearGradient
       id="linearGradient4044-7">
      <stop
         style="stop-color:#6d6d6d;stop-opacity:1;"
         offset="0"
         id="stop4046-4" />
      <stop
         id="stop4052-5"
         offset="0.19736843"
         style="stop-color:#8f8f8f;stop-opacity:1;" />
      <stop
         style="stop-color:#b1b1b1;stop-opacity:1;"
         offset="1"
         id="stop4048-5" />
    </linearGradient>
    <linearGradient
       inkscape:collect="always"
       xlink:href="#linearGradient4044-7"
       id="linearGradient5357"
       gradientUnits="userSpaceOnUse"
       gradientTransform="matrix(0.36014148,0.9328977,-0.9328977,0.36014148,3955.3659,-800.72692)"
       x1="17.832979"
       y1="39.215309"
       x2="59.924301"
       y2="32.791424" />
    <linearGradient
       inkscape:collect="always"
       xlink:href="#linearGradient4044-7"
       id="linearGradient5371"
       gradientUnits="userSpaceOnUse"
       gradientTransform="matrix(-0.32076315,-1.5999224,-1.2473846,0.250084,4891.57,-329.05892)"
       x1="17.832979"
       y1="39.215309"
       x2="59.924301"
       y2="32.791424" />
    <linearGradient
       inkscape:collect="always"
       xlink:href="#linearGradient4044-7"
       id="linearGradient5385"
       gradientUnits="userSpaceOnUse"
       gradientTransform="matrix(0.09243246,1.6188514,-1.2846454,-0.04017514,5303.4573,632.12867)"
       x1="17.832979"
       y1="39.215309"
       x2="59.924301"
       y2="32.791424" />
    <linearGradient
       inkscape:collect="always"
       xlink:href="#linearGradient4044-7"
       id="linearGradient5399"
       gradientUnits="userSpaceOnUse"
       gradientTransform="matrix(-0.02667084,-1.6146839,-1.2876902,-0.12284034,4907.7643,955.39252)"
       x1="17.832979"
       y1="39.215309"
       x2="59.924301"
       y2="32.791424" />
  </defs>
  <sodipodi:namedview
     id="base"
     pagecolor="#ffffff"
     bordercolor="#666666"
     borderopacity="1.0"
     inkscape:pageopacity="0.0"
     inkscape:pageshadow="2"
     inkscape:zoom="0.5"
     inkscape:cx="28.579857"
     inkscape:cy="2615.866"
     inkscape:document-units="px"
     inkscape:current-layer="layer2"
     showgrid="true"
     inkscape:window-width="1364"
     inkscape:window-height="748"
     inkscape:window-x="0"
     inkscape:window-y="18"
     inkscape:window-maximized="0"
     fit-margin-top="0"
     fit-margin-left="0"
     fit-margin-right="0"
     fit-margin-bottom="0"
     inkscape:snap-page="true"
     inkscape:snap-bbox="true">
    <inkscape:grid
       type="xygrid"
       id="grid5426"
       empspacing="5"
       visible="true"
       enabled="true"
       snapvisiblegridlinesonly="true" />
  </sodipodi:namedview>
  <metadata
     id="metadata7">
    <rdf:RDF>
      <cc:Work
         rdf:about="">
        <dc:format>image/svg+xml</dc:format>
        <dc:type
           rdf:resource="http://purl.org/dc/dcmitype/StillImage" />
        <dc:title></dc:title>
      </cc:Work>
    </rdf:RDF>
  </metadata>
  <g
     inkscape:groupmode="layer"
     id="layer3"
     inkscape:label="Layer"
     sodipodi:insensitive="true"
     style="display:none">
    <rect
       style="fill:#1b3950;fill-opacity:1;stroke:none"
       id="rect5429"
       width="500.03278"
       height="3000"
       x="-0.032790314"
       y="0" />
  </g>
  <g
     inkscape:label="Layer 1"
     inkscape:groupmode="layer"
     id="layer1"
     transform="translate(-258.37481,2154.8271)"
     style="display:inline">
    <path
       sodipodi:nodetypes="cscccc"
       inkscape:connector-curvature="0"
       id="path2987"
       d="m 418.37481,-2054.8271 c 0,0 -41.24405,1232.12226 -40,1400 1.24404,167.87773 40,1400 40,1400 l -100,-60 c -40,-120 -40,-2560 0,-2680 z"
       style="fill:url(#pattern5235);fill-opacity:1;stroke:#898989;stroke-width:1.04062927px;stroke-linecap:butt;stroke-linejoin:miter;stroke-opacity:1" />
    <path
       style="fill:url(#pattern5235);fill-opacity:1;stroke:#9d9d9d;stroke-width:1.17165709px;stroke-linecap:butt;stroke-linejoin:miter;stroke-opacity:1"
       d="m 418.37481,-2054.8271 c 0,0 -21.25049,1160 -20,1400 0.87457,167.85205 20,1400 20,1400 l -120,-60 c -40,-180 -40,-2500 0,-2680 z"
       id="path2985"
       inkscape:connector-curvature="0"
       sodipodi:nodetypes="cscccc" />
    <path
       style="fill:none;stroke:#000000;stroke-width:3.06522226;stroke-linecap:butt;stroke-linejoin:miter;stroke-miterlimit:4;stroke-opacity:1;stroke-dasharray:none"
       d="m 418.37481,-2054.8271 340,-100"
       id="path3763"
       inkscape:connector-curvature="0"
       sodipodi:nodetypes="cc" />
    <path
       style="fill:none;stroke:#000000;stroke-width:2.8458426;stroke-linecap:butt;stroke-linejoin:miter;stroke-miterlimit:4;stroke-opacity:1;stroke-dasharray:none"
       d="m 418.37481,745.1729 340,100"
       id="path3765"
       inkscape:connector-curvature="0"
       sodipodi:nodetypes="cc" />
  </g>
  <g
     inkscape:groupmode="layer"
     id="layer2"
     inkscape:label="Killzone"
     style="display:none"
     transform="translate(-1.638351e-6,2085.4834)">
    <path
       style="fill:#ff0000;stroke:#000000;stroke-width:1px;stroke-linecap:butt;stroke-linejoin:miter;stroke-opacity:1"
       d="m 40.000002,-1925.4834 89.999998,-40 0,2760 -89.999998,-40 -20,-320 -20.000000361649,-1020 20.000000361649,-1020 z"
       id="path5422"
       inkscape:connector-curvature="0"
       sodipodi:nodetypes="cccccccc"
       inkscape:export-xdpi="90"
       inkscape:export-ydpi="90" />
  </g>
</svg>
